<?xml version="1.0" encoding="iso-8859-1"?>
<!-- Generator: Adobe Illustrator 17.1.0, SVG Export Plug-In . SVG Version: 6.00 Build 0)  -->
<!DOCTYPE svg PUBLIC "-//W3C//DTD SVG 1.1//EN" "http://www.w3.org/Graphics/SVG/1.1/DTD/svg11.dtd">
<svg xmlns="http://www.w3.org/2000/svg" xmlns:xlink="http://www.w3.org/1999/xlink" version="1.1" id="Capa_1" x="0px" y="0px" viewBox="0 0 85.235 85.235" style="enable-background:new 0 0 85.235 85.235;" xml:space="preserve" width="512px" height="512px">
<g>
	<path d="M24.517,49.972l8.949-16.717l35.781-0.142c0.552-0.002,0.998-0.452,0.996-1.004c-0.002-0.551-0.45-0.996-1-0.996   c-0.001,0-0.002,0-0.004,0l-13.178,0.052c0.072-0.252,0.121-0.515,0.121-0.796v-0.356c0-1.6-1.237-3.05-2.817-3.303L34.75,23.731   l-5.746-2.152c-0.313-0.117-0.646-0.175-0.988-0.187c-0.062-0.007-0.12-0.025-0.183-0.028l-10.036-0.458l-0.165-0.004   c-1.381,0-3.067,0.78-3.923,1.815l-6.292,7.605c-0.266,0.321-0.446,0.675-0.547,1.036l-2.881,0.011   c-0.552,0.002-0.998,0.452-0.996,1.004c0.002,0.551,0.45,0.996,1,0.996c0.001,0,0.002,0,0.004,0l3.278-0.013   c0.263,0.324,0.609,0.591,1.038,0.756c0.358,0.139,0.75,0.208,1.165,0.208c0.952,0,1.885-0.376,2.576-0.983l7.44-0.029   l-6.796,12.697c-0.333,0.623-0.408,1.327-0.245,1.982c0.049,0.296,0.128,0.595,0.273,0.895l6.012,12.511   c0.5,1.041,0.576,2.899,0.162,3.979l-6.141,15.981c-0.364,0.948-0.286,1.91,0.215,2.639c0.5,0.729,1.37,1.146,2.386,1.146h3.154   c1.843,0,3.805-1.348,4.466-3.068l6.139-15.981c0.604-1.573,0.56-4.021-0.101-5.57L24.517,49.972z M35.116,30.171l6.566,1.05   l-7.143,0.028L35.116,30.171z M13.774,31.332l2.982-3.668c0.463-0.569,1.542-1.011,2.316-0.897l3.631,0.543l-2.139,3.996   L13.774,31.332z" fill="#FFFFFF"/>
	<path d="M35.783,19.693c1.148,0.431,2.348,0.648,3.565,0.648c4.217,0,8.045-2.654,9.524-6.604   c1.966-5.251-0.706-11.123-5.956-13.088C41.768,0.218,40.568,0,39.351,0c-4.217,0-8.044,2.654-9.523,6.604   c-0.953,2.544-0.858,5.307,0.267,7.778C31.219,16.854,33.24,18.741,35.783,19.693z" fill="#FFFFFF"/>
	<path d="M80.243,35.235h-33.75c-1.104,0-2,0.896-2,2c0,0.749,0.417,1.394,1.027,1.737c-0.008,0.088-0.027,0.173-0.027,0.263v45   c0,0.553,0.448,1,1,1s1-0.447,1-1v-45h32.75c1.104,0,2-0.896,2-2S81.347,35.235,80.243,35.235z" fill="#FFFFFF"/>
</g>
<g>
</g>
<g>
</g>
<g>
</g>
<g>
</g>
<g>
</g>
<g>
</g>
<g>
</g>
<g>
</g>
<g>
</g>
<g>
</g>
<g>
</g>
<g>
</g>
<g>
</g>
<g>
</g>
<g>
</g>
</svg>
