<?xml version="1.0" encoding="UTF-8" standalone="no"?><!DOCTYPE svg PUBLIC "-//W3C//DTD SVG 1.1//EN" "http://www.w3.org/Graphics/SVG/1.1/DTD/svg11.dtd"><svg width="100%" height="100%" viewBox="0 0 58 58" version="1.1" xmlns="http://www.w3.org/2000/svg" xmlns:xlink="http://www.w3.org/1999/xlink" xml:space="preserve" style="fill-rule:evenodd;clip-rule:evenodd;stroke-linejoin:round;stroke-miterlimit:1.41421;"><circle cx="29" cy="29" r="29" style="fill:#4caf50;"/><path d="M0,29c0,0.295 0.013,0.586 0.022,0.879l28.978,0l0,-29.879c-16.016,0 -29,12.984 -29,29Z" style="fill:#efce4a;fill-rule:nonzero;"/><path d="M29,6.879c-0.552,0 -1,0.447 -1,1l0,23l-15,0c-0.552,0 -1,0.447 -1,1c0,0.553 0.448,1 1,1l16,0c0.552,0 1,-0.447 1,-1l0,-24c0,-0.553 -0.448,-1 -1,-1Z" style="fill:#388e3c;fill-rule:nonzero;"/><path d="M29,5c-0.552,0 -1,0.447 -1,1l0,23l-15,0c-0.552,0 -1,0.447 -1,1c0,0.553 0.448,1 1,1l16,0c0.552,0 1,-0.447 1,-1l0,-24c0,-0.553 -0.448,-1 -1,-1Z" style="fill:#424a60;fill-rule:nonzero;"/></svg>