<?xml version="1.0" encoding="iso-8859-1"?>
<!-- Generator: Adobe Illustrator 18.0.0, SVG Export Plug-In . SVG Version: 6.00 Build 0)  -->
<!DOCTYPE svg PUBLIC "-//W3C//DTD SVG 1.1//EN" "http://www.w3.org/Graphics/SVG/1.1/DTD/svg11.dtd">
<svg version="1.1" id="Capa_1" xmlns="http://www.w3.org/2000/svg" xmlns:xlink="http://www.w3.org/1999/xlink" x="0px" y="0px"
	 viewBox="0 0 512 512" style="enable-background:new 0 0 512 512;" xml:space="preserve">
<g>
	<path style="fill:#6EBF5D;" d="M80,408h144c0-22.054,17.945-40,40-40s40,17.946,40,40h128c0-26.439,21.55-47.978,48-48V152
		c-26.457-0.004-48-22-48-48H304c0,22-17.945,40-40,40s-40-18-40-40H80c0,26-21.531,48-48,48v208C58.461,360,80,381.531,80,408z"/>
	<g>
		<g>
			<path style="fill:#003953;" d="M120,304c-1.375,0-2.75-0.351-3.984-1.062c-2.485-1.422-4.016-4.07-4.016-6.938V184
				c0-2.859,1.531-5.507,4.016-6.937c2.492-1.414,5.554-1.406,8.015,0.031l96,56c2.461,1.437,3.969,4.062,3.969,6.906
				c0,2.844-1.508,5.485-3.969,6.914l-96,56C122.789,303.641,121.39,304,120,304z M136,213.938v52.141l48-26.075L136,213.938z"/>
		</g>
	</g>
	<path style="fill:#003953;" d="M496,72H16C7.164,72,0,79.164,0,88v336c0,8.836,7.164,16,16,16h480c8.836,0,16-7.164,16-16V88
		C512,79.164,504.836,72,496,72z M480,360c-26.469,0-48,21.547-48,48H304c0-22.054-17.945-40-40-40s-40,17.946-40,40H80
		c0-26.469-21.539-48-48-48V152c26.469,0,48-21.531,48-48h144c0,22.063,17.945,40,40,40s40-17.937,40-40h128
		c0,26.469,21.539,48,48,48V360z"/>
	<g>
		<g>
			<path style="fill:#FFFFFF;" d="M192.016,352.008c-5.719,0-11.251-3.07-14.133-8.477c-4.157-7.797-1.211-17.484,6.586-21.64
				c0,0,257.484-129.211,261.648-121.422c4.157,7.797-246.586,149.657-246.586,149.657
				C197.133,351.399,194.554,352.008,192.016,352.008z"/>
		</g>
	</g>
</g>
<g>
</g>
<g>
</g>
<g>
</g>
<g>
</g>
<g>
</g>
<g>
</g>
<g>
</g>
<g>
</g>
<g>
</g>
<g>
</g>
<g>
</g>
<g>
</g>
<g>
</g>
<g>
</g>
<g>
</g>
</svg>
